<svg width="16" height="16" viewBox="0 0 16 16" fill="none" xmlns="http://www.w3.org/2000/svg">
<path d="M9.04844 13.9094L8.35469 14.6031C8.06094 14.8969 7.58594 14.8969 7.29531 14.6031L1.22031 8.53125C0.926565 8.2375 0.926565 7.7625 1.22031 7.47188L7.29532 1.39688C7.58906 1.10313 8.06407 1.10313 8.35469 1.39688L9.04844 2.09063C9.34532 2.3875 9.33907 2.87188 9.03594 3.1625L5.27031 6.75L14.2516 6.75C14.6672 6.75 15.0016 7.08438 15.0016 7.5L15.0016 8.5C15.0016 8.91563 14.6672 9.25 14.2516 9.25L5.27031 9.25L9.03594 12.8375C9.34219 13.1281 9.34844 13.6125 9.04844 13.9094Z" fill="#8796A4"/>
</svg>
