<svg width="16" height="16" viewBox="0 0 16 16" fill="none" xmlns="http://www.w3.org/2000/svg">
<path d="M2.0914 9.04766L1.39765 8.35391C1.1039 8.06016 1.1039 7.58516 1.39765 7.29454L7.46953 1.21954C7.76328 0.925786 8.23828 0.925786 8.5289 1.21954L14.6039 7.29454C14.8977 7.58828 14.8977 8.06329 14.6039 8.35391L13.9102 9.04766C13.6133 9.34454 13.1289 9.33829 12.8383 9.03516L9.25078 5.26954L9.25078 14.2508C9.25078 14.6664 8.9164 15.0008 8.50078 15.0008L7.50078 15.0008C7.08515 15.0008 6.75078 14.6664 6.75078 14.2508L6.75078 5.26954L3.16327 9.03516C2.87265 9.34141 2.38828 9.34766 2.0914 9.04766Z" fill="#8796A4"/>
</svg>
