<svg width="16" height="16" viewBox="0 0 16 16" fill="none" xmlns="http://www.w3.org/2000/svg">
<path d="M6.95312 2.09063L7.64687 1.39688C7.94062 1.10313 8.41563 1.10313 8.70625 1.39688L14.7812 7.46875C15.075 7.7625 15.075 8.2375 14.7812 8.52813L8.70625 14.6031C8.4125 14.8969 7.9375 14.8969 7.64687 14.6031L6.95312 13.9094C6.65625 13.6125 6.6625 13.1281 6.96562 12.8375L10.7312 9.25H1.75C1.33437 9.25 1 8.91563 1 8.5V7.5C1 7.08438 1.33437 6.75 1.75 6.75H10.7312L6.96562 3.1625C6.65937 2.87188 6.65312 2.3875 6.95312 2.09063Z" fill="#8796A4"/>
</svg>
