<svg width="16" height="16" viewBox="0 0 16 16" fill="none" xmlns="http://www.w3.org/2000/svg">
<path d="M8 1C3.58125 1 0 3.90937 0 7.5C0 9.05 0.66875 10.4688 1.78125 11.5844C1.39062 13.1594 0.084375 14.5625 0.06875 14.5781C0 14.65 -0.01875 14.7563 0.021875 14.85C0.0625 14.9438 0.15 15 0.25 15C2.32188 15 3.875 14.0063 4.64375 13.3938C5.66563 13.7781 6.8 14 8 14C12.4187 14 16 11.0906 16 7.5C16 3.90937 12.4187 1 8 1ZM4 8.5C3.44688 8.5 3 8.05312 3 7.5C3 6.94688 3.44688 6.5 4 6.5C4.55312 6.5 5 6.94688 5 7.5C5 8.05312 4.55312 8.5 4 8.5ZM8 8.5C7.44688 8.5 7 8.05312 7 7.5C7 6.94688 7.44688 6.5 8 6.5C8.55313 6.5 9 6.94688 9 7.5C9 8.05312 8.55313 8.5 8 8.5ZM12 8.5C11.4469 8.5 11 8.05312 11 7.5C11 6.94688 11.4469 6.5 12 6.5C12.5531 6.5 13 6.94688 13 7.5C13 8.05312 12.5531 8.5 12 8.5Z" fill="#8796A4"/>
</svg>
