<svg width="16" height="16" viewBox="0 0 16 16" fill="none" xmlns="http://www.w3.org/2000/svg">
<g clip-path="url(#clip0_117_14217)">
<path d="M12.832 0H6.11003C5.13361 0 4.3392 0.794414 4.3392 1.77083V1.98817H3.16799C2.19157 1.98817 1.39715 2.78258 1.39715 3.759V14.2292C1.39715 15.2057 2.19157 16.0001 3.16799 16.0001H9.88997C10.8664 16.0001 11.6607 15.2057 11.6607 14.2292V14.0119H12.8319C13.8084 14.0119 14.6028 13.2175 14.6028 12.2411V1.77083C14.6028 0.794414 13.8084 0 12.832 0ZM10.5185 14.2292C10.5185 14.5758 10.2365 14.8578 9.89005 14.8578H3.16799C2.82142 14.8578 2.53943 14.5758 2.53943 14.2292V3.75892C2.53943 3.41236 2.82142 3.13037 3.16799 3.13037H9.88997C10.2365 3.13037 10.5185 3.41236 10.5185 3.75892V14.2292H10.5185ZM13.4606 12.2411C13.4606 12.5876 13.1786 12.8696 12.832 12.8696H11.6608V3.75892C11.6608 2.78251 10.8664 1.98809 9.89005 1.98809H5.48147V1.77075C5.48147 1.42419 5.76346 1.1422 6.11003 1.1422H12.832C13.1786 1.1422 13.4606 1.42419 13.4606 1.77075V12.2411Z" fill="#8796A4"/>
</g>
<defs>
<clipPath id="clip0_117_14217">
<rect width="16" height="16" fill="white"/>
</clipPath>
</defs>
</svg>
