<svg width="16" height="16" viewBox="0 0 16 16" fill="none" xmlns="http://www.w3.org/2000/svg">
<path d="M11.6528 9.22117C12.469 9.22117 13.2087 9.55307 13.7448 10.0868C14.2806 10.6229 14.6104 11.3606 14.6104 12.1787C14.6104 12.7754 14.4327 13.3331 14.1288 13.7975L15.409 15.1927L14.526 15.9999L13.2911 14.6415C12.8224 14.954 12.2583 15.1362 11.6528 15.1362C10.8369 15.1362 10.0969 14.8043 9.56114 14.2706C9.02507 13.7345 8.69524 12.9967 8.69524 12.1789C8.69524 11.3627 9.02741 10.623 9.56114 10.0869C10.0968 9.55086 10.8348 9.22117 11.6528 9.22117ZM3.57606 7.43235C3.38791 7.43235 3.23114 7.26204 3.23114 7.05605C3.23114 6.8455 3.38335 6.67974 3.57606 6.67974H6.52387C6.71203 6.67974 6.8688 6.85006 6.8688 7.05605C6.8688 7.2666 6.71645 7.43235 6.52387 7.43235H3.57606ZM12.052 2.28934H13.2885C13.5306 2.28934 13.7547 2.38791 13.9113 2.54911C14.0725 2.71044 14.1712 2.92997 14.1712 3.1719V7.99369C14.1448 8.26986 13.4668 8.27337 13.4095 7.99369V3.17177C13.4095 3.13596 13.3959 3.10458 13.3737 3.08219C13.3513 3.05979 13.32 3.04638 13.2841 3.04638H12.0476V7.99369C11.9817 8.24421 11.4177 8.28184 11.2906 7.99369V0.882559C11.2906 0.846752 11.277 0.815371 11.2548 0.792975C11.2324 0.770579 11.2009 0.757168 11.1651 0.757168H1.87813C1.84232 0.757168 1.81081 0.770579 1.78855 0.792975C1.76602 0.815371 1.75261 0.846622 1.75261 0.882559V11.3748C1.75261 11.4106 1.76602 11.442 1.78842 11.4644C1.81081 11.4868 1.84219 11.5002 1.878 11.5002H7.41581C7.79719 11.5394 7.80865 12.1988 7.41581 12.2573H3.87164V13.6639C3.87164 13.6997 3.88518 13.7314 3.90745 13.7536C3.92971 13.7759 3.96122 13.7894 3.99703 13.7894H7.41581C7.69211 13.8204 7.78104 14.4487 7.41581 14.5465H4.00159C3.75966 14.5465 3.5357 14.4478 3.37893 14.2866C3.2176 14.1254 3.11903 13.9058 3.11903 13.6638V12.2573H1.88256C1.64063 12.2573 1.41667 12.1586 1.2599 11.9974C1.09857 11.836 1 11.6166 1 11.3747V0.882559C1 0.64063 1.09857 0.41667 1.2599 0.259768C1.4211 0.0985685 1.64063 0 1.88256 0H11.1696C11.4114 0 11.6355 0.0985685 11.7924 0.259768C11.9536 0.421097 12.052 0.64063 12.052 0.882559V2.28934ZM3.57151 3.3913C3.38335 3.3913 3.22658 3.22099 3.22658 3.01487C3.22658 2.80432 3.37893 2.63856 3.57151 2.63856H9.46713C9.65528 2.63856 9.81192 2.80888 9.81192 3.01487C9.81192 3.22542 9.65984 3.3913 9.46713 3.3913H3.57151ZM3.57151 5.41189C3.38335 5.41189 3.22658 5.24158 3.22658 5.03559C3.22658 4.82504 3.37893 4.65928 3.57151 4.65928H9.46713C9.65528 4.65928 9.81192 4.82947 9.81192 5.03559C9.81192 5.24614 9.65984 5.41189 9.46713 5.41189H3.57151ZM13.2255 10.6062C12.8231 10.2039 12.2665 9.95412 11.6528 9.95412C11.0394 9.95412 10.4828 10.2039 10.0804 10.6062C9.67807 11.0086 9.42806 11.5652 9.42806 12.1789C9.42806 12.7923 9.67807 13.3489 10.0804 13.7513C10.4828 14.1536 11.0394 14.4036 11.6528 14.4036C12.2665 14.4036 12.8231 14.1536 13.2255 13.7513C13.6278 13.3489 13.8776 12.7923 13.8776 12.1789C13.8774 11.5652 13.6277 11.0086 13.2255 10.6062Z" fill="#8796A4"/>
</svg>
