<svg width="16" height="16" viewBox="0 0 16 16" fill="none" xmlns="http://www.w3.org/2000/svg">
<g clip-path="url(#clip0_165_12967)">
<path fill-rule="evenodd" clip-rule="evenodd" d="M9.16664 9.08196H14C14.3108 9.08196 14.6088 9.20542 14.8286 9.42519C15.0484 9.64496 15.1719 9.94303 15.1719 10.2538V14.8307C15.1719 15.1415 15.0484 15.4395 14.8286 15.6593C14.6088 15.8791 14.3108 16.0025 14 16.0025H9.16664C8.85584 16.0025 8.55777 15.8791 8.338 15.6593C8.11823 15.4395 7.99477 15.1415 7.99477 14.8307V10.2499C7.99477 9.93913 8.11823 9.64106 8.338 9.42129C8.55777 9.20152 8.85584 9.07805 9.16664 9.07805V9.08196ZM8.46742 1.44003L10.9271 3.7356H8.46742V1.44003ZM3.60414 8.70956C3.56937 8.71055 3.53514 8.7185 3.50349 8.73294C3.47184 8.74737 3.4434 8.76801 3.41985 8.79362C3.3963 8.81923 3.37813 8.84929 3.36639 8.88204C3.35466 8.9148 3.34961 8.94957 3.35154 8.9843C3.34888 9.01946 3.35339 9.05479 3.36479 9.08815C3.37619 9.12151 3.39425 9.15221 3.41787 9.17839C3.44149 9.20456 3.47018 9.22567 3.5022 9.24043C3.53422 9.25519 3.5689 9.26329 3.60414 9.26425H6.69008V8.70956H3.60414ZM3.60414 10.6965C3.56936 10.6979 3.53519 10.7061 3.50366 10.7209C3.47213 10.7356 3.44387 10.7566 3.42056 10.7824C3.39726 10.8083 3.37937 10.8385 3.36796 10.8714C3.35655 10.9043 3.35185 10.9391 3.35414 10.9739C3.35185 11.0086 3.35655 11.0435 3.36796 11.0763C3.37937 11.1092 3.39726 11.1395 3.42056 11.1654C3.44387 11.1912 3.47213 11.2121 3.50366 11.2269C3.53519 11.2416 3.56936 11.2499 3.60414 11.2512H6.69008V10.6965H3.60414ZM3.60414 4.7343C3.56847 4.73423 3.53316 4.74148 3.50041 4.75561C3.46766 4.76974 3.43816 4.79046 3.41375 4.81646C3.38933 4.84246 3.37051 4.87321 3.35847 4.90678C3.34642 4.94036 3.34141 4.97605 3.34372 5.01165C3.34141 5.04724 3.34642 5.08293 3.35847 5.11651C3.37051 5.15008 3.38933 5.18083 3.41375 5.20683C3.43816 5.23283 3.46766 5.25355 3.50041 5.26768C3.53316 5.28181 3.56847 5.28906 3.60414 5.28899H6.4544C6.48907 5.2875 6.5231 5.2791 6.55448 5.26428C6.58586 5.24945 6.61396 5.22851 6.63713 5.20267C6.6603 5.17683 6.67807 5.14662 6.6894 5.11382C6.70073 5.08101 6.70539 5.04628 6.7031 5.01165C6.70539 4.97702 6.70073 4.94228 6.6894 4.90947C6.67807 4.87667 6.6603 4.84646 6.63713 4.82062C6.61396 4.79478 6.58586 4.77384 6.55448 4.75901C6.5231 4.74419 6.48907 4.73579 6.4544 4.7343H3.60414ZM3.60414 2.74732C3.56936 2.74864 3.53519 2.75692 3.50366 2.77167C3.47213 2.78642 3.44387 2.80734 3.42056 2.83319C3.39726 2.85905 3.37937 2.88931 3.36796 2.9222C3.35655 2.95509 3.35185 2.98993 3.35414 3.02467C3.35185 3.0594 3.35655 3.09424 3.36796 3.12713C3.37937 3.16002 3.39726 3.19028 3.42056 3.21614C3.44387 3.242 3.47213 3.26292 3.50366 3.27767C3.53519 3.29241 3.56936 3.30069 3.60414 3.30201H5.16664C5.20131 3.30052 5.23534 3.29212 5.26672 3.2773C5.2981 3.26247 5.3262 3.24153 5.34937 3.21569C5.37254 3.18985 5.39031 3.15964 5.40164 3.12684C5.41297 3.09403 5.41763 3.0593 5.41534 3.02467C5.41763 2.99004 5.41297 2.9553 5.40164 2.92249C5.39031 2.88969 5.37254 2.85948 5.34937 2.83364C5.3262 2.8078 5.2981 2.78686 5.26672 2.77203C5.23534 2.75721 5.20131 2.74881 5.16664 2.74732H3.60414ZM3.60414 6.72258C3.56847 6.72251 3.53316 6.72976 3.50041 6.74389C3.46766 6.75803 3.43816 6.77874 3.41375 6.80474C3.38933 6.83074 3.37051 6.86149 3.35847 6.89506C3.34642 6.92864 3.34141 6.96433 3.34372 6.99993C3.34141 7.03552 3.34642 7.07121 3.35847 7.10479C3.37051 7.13836 3.38933 7.16911 3.41375 7.19511C3.43816 7.22112 3.46766 7.24183 3.50041 7.25596C3.53316 7.27009 3.56847 7.27735 3.60414 7.27727H8.42185C8.45725 7.27643 8.49212 7.26856 8.52445 7.25412C8.55677 7.23967 8.5859 7.21894 8.61014 7.19313C8.63437 7.16732 8.65323 7.13695 8.66561 7.10378C8.678 7.07061 8.68366 7.0353 8.68227 6.99993C8.68459 6.96433 8.67957 6.92864 8.66752 6.89506C8.65548 6.86149 8.63666 6.83074 8.61224 6.80474C8.58783 6.77874 8.55833 6.75803 8.52558 6.74389C8.49283 6.72976 8.45752 6.72251 8.42185 6.72258H3.60414ZM12.3021 4.06503C12.3012 3.97645 12.2717 3.89053 12.2179 3.82012C12.1642 3.74971 12.0891 3.69859 12.0039 3.67441L8.38018 0.158781C8.34251 0.10923 8.29386 0.0690933 8.23806 0.0415289C8.18225 0.0139645 8.12081 -0.00027631 8.05857 -7.34901e-05H1.73695C1.64014 -0.000590008 1.54418 0.0180767 1.45461 0.0548489C1.36505 0.091621 1.28366 0.14577 1.21514 0.21417C1.14662 0.28257 1.09233 0.363865 1.0554 0.453363C1.01847 0.54286 0.999629 0.638787 0.999974 0.735604V13.3372C0.999666 13.4339 1.01849 13.5297 1.05536 13.619C1.09223 13.7084 1.14643 13.7896 1.21482 13.858C1.35352 13.9952 1.54058 14.0723 1.73565 14.0728H2.36195V15.1041C2.36466 15.3422 2.46046 15.5698 2.62885 15.7382C2.79725 15.9066 3.02486 16.0024 3.263 16.0051H6.69529V15.2343H3.25909C3.22511 15.2345 3.1924 15.2214 3.16794 15.1978C3.14436 15.1734 3.13128 15.1407 3.13148 15.1067V14.0794H6.69789V13.2577H1.82289V0.818937H7.6406V4.14446C7.64059 4.1991 7.65144 4.25321 7.67251 4.30363C7.69358 4.35405 7.72445 4.39978 7.76333 4.43818C7.80221 4.47658 7.84833 4.50687 7.89901 4.52731C7.94969 4.54774 8.00393 4.55791 8.05857 4.55722H11.4739V7.83847H12.2955V5.52597H13.3125C13.3469 5.52542 13.3801 5.53853 13.4049 5.56243C13.4285 5.58689 13.4416 5.6196 13.4414 5.65357V7.83977H14.2226V5.65357C14.2232 5.41567 14.1296 5.1872 13.9622 5.01816C13.8789 4.93474 13.7798 4.86875 13.6707 4.82404C13.5616 4.77933 13.4447 4.75679 13.3268 4.75774H12.2955V4.06503H12.3021ZM11.3437 14.0533L9.83982 14.4531L10.056 12.8463L11.3372 14.0546L11.3437 14.0533ZM10.3854 12.4804L11.9817 10.677C11.9942 10.6629 12.0094 10.6514 12.0264 10.6433C12.0434 10.6353 12.0619 10.6308 12.0807 10.6301C12.1042 10.6301 12.1273 10.6354 12.1484 10.6458L13.289 11.6874C13.3002 11.698 13.3092 11.7107 13.3154 11.7248C13.3217 11.7389 13.3251 11.7541 13.3255 11.7695C13.3261 11.7868 13.323 11.804 13.3162 11.82C13.3095 11.836 13.2993 11.8503 13.2864 11.8619L11.6627 13.6874L10.3841 12.4804H10.3854Z" fill="#8796A4"/>
</g>
<defs>
<clipPath id="clip0_165_12967">
<rect width="16" height="16" fill="white"/>
</clipPath>
</defs>
</svg>
