<svg width="16" height="16" viewBox="0 0 16 16" fill="none" xmlns="http://www.w3.org/2000/svg">
<path d="M15.9082 9.00258L13.8964 12.4513C13.7398 12.7197 13.5157 12.9424 13.2462 13.0972C12.9768 13.2519 12.6715 13.3333 12.3608 13.3333H1.25069C0.736167 13.3333 0.415584 12.7752 0.674834 12.3308L2.68661 8.882C2.84317 8.61361 3.06734 8.39094 3.33678 8.23619C3.60622 8.08143 3.91151 8 4.22222 8H15.3323C15.8469 8 16.1674 8.55814 15.9082 9.00258ZM4.22222 7.11111H13.3333V5.77778C13.3333 5.04139 12.7364 4.44445 12 4.44445H7.55556L5.77778 2.66667H1.33333C0.596945 2.66667 4.76837e-07 3.26361 4.76837e-07 4V11.7235L1.91881 8.43411C2.39483 7.61806 3.27747 7.11111 4.22222 7.11111Z" fill="#8796A4"/>
</svg>
