<svg width="16" height="16" viewBox="0 0 16 16" fill="none" xmlns="http://www.w3.org/2000/svg">
<g clip-path="url(#clip0_117_25639)">
<path d="M0.387769 4.62549L7.66714 7.92768C7.87964 8.02424 8.11996 8.02424 8.33246 7.92768L15.6118 4.62549C16.129 4.39081 16.129 3.60924 15.6118 3.37456L8.33277 0.0720565C8.22836 0.0243349 8.11491 -0.000364304 8.00011 -0.000364304C7.88532 -0.000364304 7.77186 0.0243349 7.66746 0.0720565L0.387769 3.37424C-0.129419 3.60893 -0.129419 4.39081 0.387769 4.62549ZM15.6121 7.38424L13.7968 6.56143L8.74558 8.85112C8.50933 8.95831 8.25839 9.01268 7.99996 9.01268C7.74152 9.01268 7.49089 8.95831 7.25433 8.85112L2.20339 6.56143L0.387769 7.38424C-0.129419 7.61862 -0.129419 8.39987 0.387769 8.63424L7.66714 11.9339C7.87964 12.0302 8.11996 12.0302 8.33246 11.9339L15.6121 8.63424C16.1293 8.39987 16.1293 7.61862 15.6121 7.38424ZM15.6121 11.378L13.8037 10.5583L8.74558 12.8511C8.50933 12.9583 8.25839 13.0127 7.99996 13.0127C7.74152 13.0127 7.49089 12.9583 7.25433 12.8511L2.19652 10.5583L0.387769 11.378C-0.129419 11.6124 -0.129419 12.3936 0.387769 12.628L7.66714 15.9277C7.87964 16.0239 8.11996 16.0239 8.33246 15.9277L15.6121 12.628C16.1293 12.3936 16.1293 11.6124 15.6121 11.378Z" fill="#8796A4"/>
</g>
<defs>
<clipPath id="clip0_117_25639">
<rect width="16" height="16" fill="white"/>
</clipPath>
</defs>
</svg>
