<svg width="16" height="16" viewBox="0 0 16 16" fill="none" xmlns="http://www.w3.org/2000/svg">
<path d="M16 8.2V7.8C16 7.579 15.821 7.4 15.6 7.4H8.6V6.4H10.4C10.8418 6.4 11.2 6.04175 11.2 5.6V2.4C11.2 1.95825 10.8418 1.6 10.4 1.6H5.6C5.15825 1.6 4.8 1.95825 4.8 2.4V5.6C4.8 6.04175 5.15825 6.4 5.6 6.4H7.4V7.4H0.4C0.179 7.4 0 7.579 0 7.8V8.2C0 8.421 0.179 8.6 0.4 8.6H3V9.6H1.6C1.15825 9.6 0.8 9.95825 0.8 10.4V13.6C0.8 14.0417 1.15825 14.4 1.6 14.4H5.6C6.04175 14.4 6.4 14.0417 6.4 13.6V10.4C6.4 9.95825 6.04175 9.6 5.6 9.6H4.2V8.6H11.8V9.6H10.4C9.95825 9.6 9.6 9.95825 9.6 10.4V13.6C9.6 14.0417 9.95825 14.4 10.4 14.4H14.4C14.8418 14.4 15.2 14.0417 15.2 13.6V10.4C15.2 9.95825 14.8418 9.6 14.4 9.6H13V8.6H15.6C15.821 8.6 16 8.421 16 8.2ZM6.4 4.8V3.2H9.6V4.8H6.4ZM4.8 12.8H2.4V11.2H4.8V12.8ZM13.6 12.8H11.2V11.2H13.6V12.8Z" fill="#8796A4"/>
</svg>
