<svg width="16" height="16" viewBox="0 0 16 16" fill="none" xmlns="http://www.w3.org/2000/svg">
<path d="M8 16C9.10375 16 9.99906 15.1047 9.99906 14H6.00094C6.00094 15.1047 6.89625 16 8 16ZM14.7309 11.3216C14.1272 10.6728 12.9975 9.69687 12.9975 6.5C12.9975 4.07188 11.295 2.12812 8.99937 1.65125V1C8.99937 0.447812 8.55187 0 8 0C7.44812 0 7.00062 0.447812 7.00062 1V1.65125C4.705 2.12812 3.0025 4.07188 3.0025 6.5C3.0025 9.69687 1.87281 10.6728 1.26906 11.3216C1.08156 11.5231 0.998436 11.7641 0.999999 12C1.00344 12.5125 1.40562 13 2.00312 13H13.9969C14.5944 13 14.9969 12.5125 15 12C15.0016 11.7641 14.9184 11.5228 14.7309 11.3216Z" fill="#8796A4"/>
</svg>
