<svg width="16" height="16" viewBox="0 0 16 16" fill="none" xmlns="http://www.w3.org/2000/svg">
<path d="M11.2371 14.6398H3.79836C3.12534 14.6398 2.55858 14.0671 2.55858 13.387V2.64877C2.55858 1.96868 3.12534 1.39597 3.79836 1.39597H11.2371C11.9101 1.39597 12.4768 1.96868 12.4768 2.64877V13.3512C12.4768 14.0671 11.9101 14.6398 11.2371 14.6398ZM3.79836 2.04027C3.47956 2.04027 3.19618 2.32662 3.19618 2.64877V13.3512C3.19618 13.6734 3.47956 13.9597 3.79836 13.9597H11.2371C11.5559 13.9597 11.8392 13.6734 11.8392 13.3512V2.64877C11.8392 2.32662 11.5559 2.04027 11.2371 2.04027H3.79836ZM1.67302 1.71812H1.03542V1.2528C1.03542 0.572707 1.60218 0 2.2752 0H2.91281V0.644295H2.2752C1.9564 0.644295 1.67302 0.930649 1.67302 1.2528V1.71812ZM12.7602 16H12.1226V15.3557H12.7602C13.079 15.3557 13.3624 15.0694 13.3624 14.7472V14.2819H14V14.7472C14 15.4631 13.4687 16 12.7602 16ZM2.87738 16H2.23978C1.56676 16 1 15.4273 1 14.7472V14.2819H1.6376V14.7472C1.6376 15.0694 1.92098 15.3557 2.23978 15.3557H2.87738V16ZM14 1.71812H13.3624V1.2528C13.3624 0.930649 13.079 0.644295 12.7602 0.644295H12.1226V0H12.7602C13.4332 0 14 0.572707 14 1.2528V1.71812Z" fill="#8796A4"/>
<path d="M5.84479 4.84404H10.9706V5.46746H5.84479V4.84404ZM5.84479 6.36794H10.9706V6.99136H5.84479V6.36794ZM5.84479 7.85721H10.9706V8.48063H5.84479V7.85721ZM5.84479 9.34648H8.44058V9.9699H5.84479V9.34648Z" fill="#8796A4"/>
</svg>
