<svg width="16" height="16" viewBox="0 0 16 16" fill="none" xmlns="http://www.w3.org/2000/svg">
<g clip-path="url(#clip0_120_18697)">
<path d="M1.6553 10.6272C0.953569 8.93301 0.953531 7.06699 1.6553 5.37284C2.05738 4.40212 2.66259 3.55473 3.42462 2.87573L5.72255 5.17366V0.570099H1.11895L2.62472 2.07587C0.19717 4.2819 -0.71683 7.86035 0.608804 11.0606C1.14372 12.352 2.00848 13.4831 3.10965 14.3317C4.17724 15.1544 5.44583 15.6986 6.77826 15.9054L6.95198 14.786C4.56029 14.4149 2.58025 12.8601 1.6553 10.6272Z" fill="#8796A4"/>
<path d="M15.3869 11.0607C16.2044 9.08699 16.2044 6.91305 15.3869 4.93938C14.8519 3.64799 13.9871 2.51689 12.886 1.66832C11.8184 0.845582 10.5498 0.301419 9.2174 0.0946579L9.04368 1.21402C11.4353 1.58514 13.4154 3.13985 14.3403 5.37288C15.0421 7.06703 15.0421 8.93305 14.3403 10.6272C13.9382 11.5979 13.333 12.4453 12.571 13.1243L10.2731 10.8264V15.4299H14.8767L13.3739 13.9271C14.2391 13.1434 14.9269 12.1711 15.3869 11.0607Z" fill="#8796A4"/>
</g>
<defs>
<clipPath id="clip0_120_18697">
<rect width="16" height="16" fill="white"/>
</clipPath>
</defs>
</svg>
