<svg width="16" height="16" viewBox="0 0 16 16" fill="none" xmlns="http://www.w3.org/2000/svg">
<path d="M12 10C11.2935 10 10.6442 10.2443 10.1316 10.653L6.92887 8.65128C7.02372 8.22226 7.02372 7.77771 6.92887 7.34869L10.1316 5.347C10.6442 5.75566 11.2935 6 12 6C13.6568 6 15 4.65684 15 3C15 1.34316 13.6568 0 12 0C10.3432 0 9 1.34316 9 3C9 3.22369 9.02469 3.44156 9.07113 3.65128L5.86844 5.65297C5.35584 5.24434 4.7065 5 4 5C2.34316 5 1 6.34316 1 8C1 9.65684 2.34316 11 4 11C4.7065 11 5.35584 10.7557 5.86844 10.347L9.07113 12.3487C9.02379 12.5626 8.99994 12.781 9 13C9 14.6568 10.3432 16 12 16C13.6568 16 15 14.6568 15 13C15 11.3432 13.6568 10 12 10Z" fill="#8796A4"/>
</svg>
