<svg width="16" height="16" viewBox="0 0 16 16" fill="none" xmlns="http://www.w3.org/2000/svg">
<g clip-path="url(#clip0_117_25649)">
<path d="M4.36281 1.10937C4.32797 1.07441 4.28658 1.04668 4.24099 1.02775C4.19541 1.00882 4.14654 0.999079 4.09719 0.999079C4.04783 0.999079 3.99896 1.00882 3.95338 1.02775C3.9078 1.04668 3.8664 1.07441 3.83156 1.10937L1.84156 3.08781L1.13219 2.39656C1.09735 2.3616 1.05595 2.33386 1.01037 2.31494C0.964786 2.29601 0.915916 2.28627 0.866561 2.28627C0.817206 2.28627 0.768336 2.29601 0.722754 2.31494C0.677172 2.33386 0.635775 2.3616 0.600936 2.39656L0.110311 2.88781C0.075351 2.92265 0.0476122 2.96405 0.0286851 3.00963C0.00975812 3.05521 1.52588e-05 3.10408 1.52588e-05 3.15344C1.52588e-05 3.20279 0.00975812 3.25166 0.0286851 3.29724C0.0476122 3.34283 0.075351 3.38422 0.110311 3.41906L1.5975 4.90031C1.67173 4.97088 1.77024 5.01022 1.87265 5.01022C1.97507 5.01022 2.07358 4.97088 2.14781 4.90031L2.635 4.41219L4.89125 2.15625C4.96155 2.08589 5.00127 1.99066 5.0018 1.8912C5.00232 1.79175 4.96361 1.69609 4.89406 1.625L4.36281 1.10937ZM4.36281 6.08406C4.32797 6.0491 4.28658 6.02136 4.24099 6.00244C4.19541 5.98351 4.14654 5.97377 4.09719 5.97377C4.04783 5.97377 3.99896 5.98351 3.95338 6.00244C3.9078 6.02136 3.8664 6.0491 3.83156 6.08406L1.84156 8.07531L1.13219 7.38469C1.09735 7.34973 1.05595 7.32199 1.01037 7.30306C0.964786 7.28413 0.915916 7.27439 0.866561 7.27439C0.817206 7.27439 0.768336 7.28413 0.722754 7.30306C0.677172 7.32199 0.635775 7.34973 0.600936 7.38469L0.110311 7.875C0.075351 7.90984 0.0476122 7.95124 0.0286851 7.99682C0.00975812 8.0424 1.52588e-05 8.09127 1.52588e-05 8.14063C1.52588e-05 8.18998 0.00975812 8.23885 0.0286851 8.28443C0.0476122 8.33001 0.075351 8.37141 0.110311 8.40625L1.59375 9.89062C1.66793 9.96117 1.76638 10.0005 1.86875 10.0005C1.97112 10.0005 2.06957 9.96117 2.14375 9.89062L2.63437 9.40031L4.89062 7.14344C4.96065 7.07357 5.00024 6.97887 5.00077 6.87995C5.0013 6.78104 4.96272 6.68592 4.89344 6.61531L4.36281 6.08406ZM2 11.5C1.17219 11.5 0.481561 12.1719 0.481561 13C0.481561 13.8281 1.17281 14.5 2 14.5C2.39782 14.5 2.77935 14.342 3.06066 14.0607C3.34196 13.7794 3.5 13.3978 3.5 13C3.5 12.6022 3.34196 12.2206 3.06066 11.9393C2.77935 11.658 2.39782 11.5 2 11.5ZM15.5 12H6.5C6.36739 12 6.24021 12.0527 6.14645 12.1464C6.05268 12.2402 6 12.3674 6 12.5V13.5C6 13.6326 6.05268 13.7598 6.14645 13.8536C6.24021 13.9473 6.36739 14 6.5 14H15.5C15.6326 14 15.7598 13.9473 15.8536 13.8536C15.9473 13.7598 16 13.6326 16 13.5V12.5C16 12.3674 15.9473 12.2402 15.8536 12.1464C15.7598 12.0527 15.6326 12 15.5 12ZM15.5 2H6.5C6.36739 2 6.24021 2.05268 6.14645 2.14645C6.05268 2.24021 6 2.36739 6 2.5V3.5C6 3.63261 6.05268 3.75978 6.14645 3.85355C6.24021 3.94732 6.36739 4 6.5 4H15.5C15.6326 4 15.7598 3.94732 15.8536 3.85355C15.9473 3.75978 16 3.63261 16 3.5V2.5C16 2.36739 15.9473 2.24021 15.8536 2.14645C15.7598 2.05268 15.6326 2 15.5 2ZM15.5 7H6.5C6.36739 7 6.24021 7.05268 6.14645 7.14645C6.05268 7.24022 6 7.36739 6 7.5V8.5C6 8.63261 6.05268 8.75979 6.14645 8.85355C6.24021 8.94732 6.36739 9 6.5 9H15.5C15.6326 9 15.7598 8.94732 15.8536 8.85355C15.9473 8.75979 16 8.63261 16 8.5V7.5C16 7.36739 15.9473 7.24022 15.8536 7.14645C15.7598 7.05268 15.6326 7 15.5 7Z" fill="#8796A4"/>
</g>
<defs>
<clipPath id="clip0_117_25649">
<rect width="16" height="16" fill="white"/>
</clipPath>
</defs>
</svg>
