<svg width="16" height="16" viewBox="0 0 16 16" fill="none" xmlns="http://www.w3.org/2000/svg">
<g clip-path="url(#clip0_117_14229)">
<path d="M2 14.5C2 14.8978 2.15804 15.2794 2.43934 15.5607C2.72064 15.842 3.10218 16 3.5 16H12.5C12.8978 16 13.2794 15.842 13.5607 15.5607C13.842 15.2794 14 14.8978 14 14.5V4H2V14.5ZM10.5 6.5C10.5 6.36739 10.5527 6.24022 10.6464 6.14645C10.7402 6.05268 10.8674 6 11 6C11.1326 6 11.2598 6.05268 11.3536 6.14645C11.4473 6.24022 11.5 6.36739 11.5 6.5V13.5C11.5 13.6326 11.4473 13.7598 11.3536 13.8536C11.2598 13.9473 11.1326 14 11 14C10.8674 14 10.7402 13.9473 10.6464 13.8536C10.5527 13.7598 10.5 13.6326 10.5 13.5V6.5ZM7.5 6.5C7.5 6.36739 7.55268 6.24022 7.64645 6.14645C7.74021 6.05268 7.86739 6 8 6C8.13261 6 8.25979 6.05268 8.35355 6.14645C8.44732 6.24022 8.5 6.36739 8.5 6.5V13.5C8.5 13.6326 8.44732 13.7598 8.35355 13.8536C8.25979 13.9473 8.13261 14 8 14C7.86739 14 7.74021 13.9473 7.64645 13.8536C7.55268 13.7598 7.5 13.6326 7.5 13.5V6.5ZM4.5 6.5C4.5 6.36739 4.55268 6.24022 4.64645 6.14645C4.74021 6.05268 4.86739 6 5 6C5.13261 6 5.25979 6.05268 5.35355 6.14645C5.44732 6.24022 5.5 6.36739 5.5 6.5V13.5C5.5 13.6326 5.44732 13.7598 5.35355 13.8536C5.25979 13.9473 5.13261 14 5 14C4.86739 14 4.74021 13.9473 4.64645 13.8536C4.55268 13.7598 4.5 13.6326 4.5 13.5V6.5ZM14.5 1H10.75L10.4563 0.415625C10.394 0.290692 10.2982 0.185601 10.1795 0.112174C10.0608 0.038748 9.92395 -0.000100346 9.78438 -2.43071e-07H6.2125C6.07324 -0.000535572 5.93665 0.0381679 5.81838 0.111676C5.7001 0.185184 5.60492 0.290523 5.54375 0.415625L5.25 1H1.5C1.36739 1 1.24021 1.05268 1.14645 1.14645C1.05268 1.24021 1 1.36739 1 1.5V2.5C1 2.63261 1.05268 2.75979 1.14645 2.85355C1.24021 2.94732 1.36739 3 1.5 3H14.5C14.6326 3 14.7598 2.94732 14.8536 2.85355C14.9473 2.75979 15 2.63261 15 2.5V1.5C15 1.36739 14.9473 1.24021 14.8536 1.14645C14.7598 1.05268 14.6326 1 14.5 1Z" fill="#8796A4"/>
</g>
<defs>
<clipPath id="clip0_117_14229">
<rect width="16" height="16" fill="white"/>
</clipPath>
</defs>
</svg>
