<svg width="16" height="16" viewBox="0 0 16 16" fill="none" xmlns="http://www.w3.org/2000/svg">
<g clip-path="url(#clip0_165_12943)">
<path fill-rule="evenodd" clip-rule="evenodd" d="M4.25549 11.1272C4.64808 11.1272 4.9659 11.4457 4.9659 11.8373C4.9659 12.2299 4.64745 12.5477 4.25549 12.5477C3.86322 12.5477 3.5454 12.2293 3.5454 11.8373C3.5454 11.4457 3.86353 11.1272 4.25549 11.1272ZM9.64566 11.3196C10.7164 10.2492 12.4526 10.2492 13.523 11.3196C14.5938 12.3904 14.5938 14.1265 13.523 15.197C12.4526 16.2678 10.7164 16.2678 9.64566 15.197C8.57519 14.1265 8.57519 12.3904 9.64566 11.3196ZM12.0281 12.0535C12.0925 12.1182 12.1254 12.2077 12.1254 12.3222C12.1254 12.5987 11.8132 12.7692 11.5667 12.7692C11.4553 12.7692 11.3662 12.7379 11.2983 12.6754C11.2304 12.6119 11.1963 12.5299 11.1963 12.4279C11.1963 12.2997 11.2517 12.1889 11.3621 12.0951C11.5269 11.9562 11.8541 11.8796 12.0281 12.0535ZM11.0186 14.2395H11.1647V13.3145H10.8888C10.8888 12.9381 11.5795 13.1825 12.0881 13.0539V14.2395H12.2802V14.5642H11.0186V14.2395ZM1.87433 15.0609C1.3954 15.0609 1 14.6652 1 14.1866V3.00524C1 2.52413 1.39446 2.12998 1.87589 2.12998H3.28513V1.85438C3.28513 1.53218 3.55165 1.26785 3.87323 1.26785H4.82951V0.650348C4.82951 0.295613 5.12137 0 5.47705 0H8.83295C9.19051 0 9.4833 0.293423 9.4833 0.650348V1.26941H10.3073C10.6295 1.26941 10.895 1.53719 10.895 1.85876V2.13436H12.3046C12.7845 2.13436 13.1802 2.52819 13.1802 3.00837V9.91351C12.9462 9.80214 12.7028 9.71643 12.4544 9.65668V2.94393C12.4544 2.89325 12.4166 2.85571 12.3662 2.85571L10.895 2.8554V3.33464C10.895 3.65621 10.627 3.92117 10.3057 3.92117H3.87167C3.54946 3.92117 3.28513 3.65496 3.28513 3.33339V2.85384H1.8127C1.76421 2.85384 1.72417 2.89419 1.72417 2.94236V14.2451C1.72417 14.2939 1.76515 14.3352 1.81426 14.3352L8.03902 14.3367C8.11473 14.5854 8.21702 14.8279 8.34559 15.0594C5.33909 15.059 1.87433 15.059 1.87433 15.0609ZM9.26621 1.98827C9.01846 1.98827 8.74568 1.85751 8.74568 1.57535V0.726676H5.56464V1.57535C5.56464 1.83687 5.31657 1.98827 5.07758 1.98827H4.03464V3.25768H10.1459V1.98827H9.26621ZM6.72112 9.8303H4.57269V10.6715H3.93861V9.51404C3.93861 9.33917 4.08063 9.19715 4.25549 9.19715H6.70361L6.69328 8.21553C6.56722 8.17831 6.43927 8.12888 6.32603 8.06194L6.12896 8.27903C6.0567 8.3538 5.93532 8.35786 5.85775 8.28936L5.56839 8.01814C5.49237 7.94307 5.48018 7.82889 5.55744 7.75006L5.77391 7.51638C5.70688 7.40028 5.65455 7.27629 5.61813 7.14726L5.32908 7.15883C5.22366 7.16259 5.1342 7.08063 5.13013 6.97552L5.11449 6.57887C5.11074 6.47095 5.18957 6.38398 5.2978 6.37992L5.61375 6.36772C5.65004 6.24103 5.70009 6.11215 5.76734 5.99828L5.55369 5.80152C5.47423 5.72738 5.46891 5.60976 5.54274 5.52968L5.80863 5.24064C5.88371 5.164 5.99695 5.15273 6.07672 5.22937L6.31415 5.44522C6.43239 5.37483 6.54626 5.3276 6.67827 5.28943L6.66669 5.00039C6.66294 4.89497 6.7449 4.80551 6.85 4.80144L7.24666 4.78642C7.35427 4.78267 7.44154 4.8615 7.4453 4.97005L7.45781 5.28568C7.58606 5.32353 7.70931 5.37108 7.82506 5.43927L8.02182 5.22625C8.09596 5.14679 8.21389 5.14147 8.29397 5.2153L8.29772 5.21843L8.58708 5.48432C8.66341 5.55971 8.67467 5.67295 8.59803 5.75241L8.38218 5.99015C8.451 6.10964 8.49887 6.2232 8.53797 6.35552L8.82732 6.34394C8.93243 6.33988 9.0219 6.42215 9.02596 6.52726L9.0416 6.92359C9.04536 7.03152 8.96653 7.11879 8.85798 7.12255L8.54235 7.13506C8.50512 7.26081 8.4557 7.38875 8.38875 7.50231L8.60554 7.69907C8.68218 7.77258 8.68343 7.8902 8.61586 7.97028L8.34465 8.26027C8.27489 8.33941 8.15289 8.34473 8.07687 8.27121L7.8432 8.05506C7.7237 8.12325 7.60608 8.17236 7.47376 8.21053L7.48346 9.1959H9.92531C10.1005 9.1959 10.2425 9.33792 10.2425 9.51279V9.80402C10.0235 9.88879 9.81114 9.99547 9.60843 10.1237V9.8303H7.48158V10.6715H6.72112V9.8303ZM7.35114 6.01986C7.64769 6.13529 7.84132 6.39963 7.85477 6.71839C7.86791 7.03465 7.69305 7.31868 7.40838 7.45507C7.12278 7.59209 6.78025 7.53453 6.54657 7.32338C6.31509 7.10847 6.23563 6.77063 6.34637 6.47501C6.40205 6.33174 6.49277 6.21225 6.60757 6.12591C6.81872 5.967 7.10432 5.92727 7.35114 6.01986ZM7.07742 11.1272C7.47001 11.1272 7.78752 11.4457 7.78752 11.8373C7.78752 12.2299 7.46938 12.5477 7.07742 12.5477C6.68484 12.5477 6.36701 12.2293 6.36701 11.8373C6.36701 11.4457 6.68484 11.1272 7.07742 11.1272Z" fill="#8796A4"/>
</g>
<defs>
<clipPath id="clip0_165_12943">
<rect width="16" height="16" fill="white"/>
</clipPath>
</defs>
</svg>
