<svg width="16" height="16" viewBox="0 0 16 16" fill="none" xmlns="http://www.w3.org/2000/svg">
<path d="M15.2625 10.9325C15.3275 10.58 15.3275 10.22 15.2625 9.8675L15.9075 9.495C15.9825 9.4525 16.015 9.365 15.99 9.2825C15.8225 8.7425 15.535 8.2525 15.16 7.8475C15.1025 7.785 15.01 7.77 14.935 7.8125L14.29 8.185C14.0175 7.9525 13.705 7.7725 13.3675 7.6525V6.9075C13.3675 6.8225 13.3075 6.7475 13.225 6.73C12.6675 6.605 12.1 6.61 11.57 6.73C11.4875 6.7475 11.4275 6.8225 11.4275 6.9075V7.6525C11.09 7.7725 10.7775 7.9525 10.505 8.185L9.86 7.8125C9.7875 7.77 9.6925 7.785 9.635 7.8475C9.26 8.2525 8.9725 8.7425 8.805 9.2825C8.78 9.365 8.815 9.4525 8.8875 9.495L9.5325 9.8675C9.4675 10.22 9.4675 10.58 9.5325 10.9325L8.8875 11.305C8.8125 11.3475 8.78 11.435 8.805 11.5175C8.9725 12.0575 9.26 12.545 9.635 12.9525C9.6925 13.015 9.785 13.03 9.86 12.9875L10.505 12.615C10.7775 12.8475 11.09 13.0275 11.4275 13.1475V13.8925C11.4275 13.9775 11.4875 14.0525 11.57 14.07C12.1275 14.195 12.695 14.19 13.225 14.07C13.3075 14.0525 13.3675 13.9775 13.3675 13.8925V13.1475C13.705 13.0275 14.0175 12.8475 14.29 12.615L14.935 12.9875C15.0075 13.03 15.1025 13.015 15.16 12.9525C15.535 12.5475 15.8225 12.0575 15.99 11.5175C16.015 11.435 15.98 11.3475 15.9075 11.305L15.2625 10.9325ZM12.4 11.6125C11.73 11.6125 11.1875 11.0675 11.1875 10.4C11.1875 9.7325 11.7325 9.1875 12.4 9.1875C13.0675 9.1875 13.6125 9.7325 13.6125 10.4C13.6125 11.0675 13.07 11.6125 12.4 11.6125ZM5.6 8C7.3675 8 8.8 6.5675 8.8 4.8C8.8 3.0325 7.3675 1.6 5.6 1.6C3.8325 1.6 2.4 3.0325 2.4 4.8C2.4 6.5675 3.8325 8 5.6 8ZM10.63 13.6625C10.5725 13.6325 10.515 13.5975 10.46 13.565L10.2625 13.68C10.1125 13.765 9.9425 13.8125 9.7725 13.8125C9.5 13.8125 9.2375 13.6975 9.05 13.4975C8.5925 13.0025 8.2425 12.4 8.045 11.7575C7.9075 11.315 8.0925 10.8475 8.4925 10.615L8.69 10.5C8.6875 10.435 8.6875 10.37 8.69 10.305L8.4925 10.19C8.0925 9.96 7.9075 9.49 8.045 9.0475C8.0675 8.975 8.1 8.9025 8.125 8.83C8.03 8.8225 7.9375 8.8 7.84 8.8H7.4225C6.8675 9.055 6.25 9.2 5.6 9.2C4.95 9.2 4.335 9.055 3.7775 8.8H3.36C1.505 8.8 0 10.305 0 12.16V13.2C0 13.8625 0.5375 14.4 1.2 14.4H10C10.2525 14.4 10.4875 14.32 10.68 14.1875C10.65 14.0925 10.63 13.995 10.63 13.8925V13.6625Z" fill="#8796A4"/>
</svg>
