<svg width="16" height="16" viewBox="0 0 16 16" fill="none" xmlns="http://www.w3.org/2000/svg">
<path d="M4 1.77778C4 0.795938 4.86441 0 5.93071 0C6.99704 0 7.86142 0.795938 7.86142 1.77778C7.86142 2.08149 7.77869 2.36743 7.63292 2.61751H8.19331C10.3259 2.61751 12.0547 4.20939 12.0547 6.17307V7.31058C12.6207 7.62053 13 8.18933 13 8.83973C13 9.8216 12.1356 10.6175 11.0693 10.6175C10.003 10.6175 9.13858 9.8216 9.13858 8.83973C9.13858 8.17413 9.53582 7.59396 10.124 7.28925V6.17307C10.124 5.19123 9.25954 4.39529 8.19331 4.39529H6.89606V12.6823C7.47315 12.9897 7.86142 13.5642 7.86142 14.2222C7.86142 15.2041 6.99704 16 5.93071 16C4.86441 16 4 15.2041 4 14.2222C4 13.5642 4.38827 12.9897 4.96535 12.6823V3.31772C4.38827 3.01034 4 2.4358 4 1.77778Z" fill="#8796A4"/>
</svg>
