<svg width="16" height="16" viewBox="0 0 16 16" fill="none" xmlns="http://www.w3.org/2000/svg">
<path d="M2.94737 0C1.32211 0 0 1.256 0 2.8C0 4.064 0.892632 5.1224 2.10526 5.4696V11.1976C2.10442 11.3408 2.128 12.6224 3.09389 13.5424C3.69011 14.112 4.48842 14.4 5.46526 14.4V16L8.83368 13.6L5.46526 11.2V12.8C3.93011 12.8 3.79453 11.5728 3.78947 11.2V5.4696C5.00211 5.1224 5.89474 4.064 5.89474 2.8C5.89474 1.256 4.57179 0 2.94737 0ZM2.94737 4C2.25095 4 1.68421 3.4616 1.68421 2.8C1.68421 2.1384 2.25095 1.6 2.94737 1.6C3.64379 1.6 4.21053 2.1384 4.21053 2.8C4.21053 3.4616 3.64379 4 2.94737 4ZM13.8947 10.5304V4.7976C13.8905 3.5128 12.9878 1.6 10.5179 1.6V0L7.14947 2.4L10.5179 4.8V3.2C12.0581 3.2 12.2029 4.4312 12.2105 4.8V10.5304C10.9979 10.8776 10.1053 11.936 10.1053 13.2C10.1053 14.744 11.4274 16 13.0526 16C14.6779 16 16 14.744 16 13.2C16 11.936 15.1074 10.8776 13.8947 10.5304ZM13.0526 14.4C12.3562 14.4 11.7895 13.8616 11.7895 13.2C11.7895 12.5384 12.3562 12 13.0526 12C13.7491 12 14.3158 12.5384 14.3158 13.2C14.3158 13.8616 13.7491 14.4 13.0526 14.4Z" fill="#8796A4"/>
</svg>
