<svg width="16" height="16" viewBox="0 0 16 16" fill="none" xmlns="http://www.w3.org/2000/svg">
<path d="M15.9033 7.59444C14.3969 4.65528 11.4147 2.66667 8 2.66667C4.58528 2.66667 1.60222 4.65667 0.0966667 7.59472C0.0331228 7.72042 1.52588e-05 7.85929 1.52588e-05 8.00014C1.52588e-05 8.14099 0.0331228 8.27986 0.0966667 8.40556C1.60306 11.3447 4.58528 13.3333 8 13.3333C11.4147 13.3333 14.3978 11.3433 15.9033 8.40528C15.9669 8.27958 16 8.14071 16 7.99986C16 7.85902 15.9669 7.72014 15.9033 7.59444ZM8 12C7.20887 12 6.43551 11.7654 5.77772 11.3259C5.11992 10.8864 4.60723 10.2616 4.30448 9.53073C4.00173 8.79983 3.92252 7.99556 4.07686 7.21964C4.2312 6.44372 4.61216 5.73098 5.17157 5.17157C5.73098 4.61216 6.44371 4.2312 7.21964 4.07686C7.99556 3.92252 8.79983 4.00173 9.53073 4.30448C10.2616 4.60723 10.8864 5.11992 11.3259 5.77772C11.7654 6.43552 12 7.20888 12 8C12.0003 8.52536 11.897 9.04562 11.696 9.53104C11.4951 10.0165 11.2005 10.4575 10.829 10.829C10.4575 11.2005 10.0165 11.4951 9.53104 11.696C9.04562 11.897 8.52536 12.0003 8 12ZM8 5.33333C7.76198 5.33666 7.5255 5.37207 7.29694 5.43861C7.48534 5.69463 7.57574 6.00969 7.55177 6.32665C7.52779 6.64361 7.39101 6.94148 7.16625 7.16625C6.94148 7.39102 6.64361 7.52779 6.32665 7.55177C6.00969 7.57575 5.69463 7.48534 5.43861 7.29695C5.29282 7.83405 5.31914 8.40336 5.51386 8.92472C5.70857 9.44609 6.06188 9.89327 6.52406 10.2033C6.98623 10.5134 7.534 10.6707 8.09027 10.6531C8.64653 10.6355 9.18328 10.444 9.62497 10.1054C10.0667 9.76676 10.391 9.29817 10.5525 8.76555C10.7139 8.23293 10.7042 7.66311 10.5248 7.13627C10.3454 6.60944 10.0053 6.15212 9.5524 5.8287C9.09948 5.50527 8.55654 5.33202 8 5.33333Z" fill="#8796A4"/>
</svg>
