<svg viewBox="0 0 128 128" fill="none" xmlns="http://www.w3.org/2000/svg">
<path d="M70.2647 86.8382L58.201 113.897L54.8186 117.73L51.2108 119.985H27.8725C25.5049 119.985 23.5882 118.069 23.5882 115.701V11.4118C23.5882 9.04411 25.5049 7.12744 27.8725 7.12744H86.049C95.6324 7.12744 103.299 14.9069 103.299 24.3774V60.1176L98 69.701L93.8284 73.7598L70.2647 86.8382Z" fill="white"/>
<path d="M103.299 56.2843V60.1176C103.299 64.9657 100.819 68.0098 100.819 68.0098L56.2843 117.505C56.2843 117.505 53.5784 119.873 51.549 119.873H48.0539C52.3382 119.873 55.7206 116.377 55.8333 112.206V80.9755C55.8333 76.2402 59.6667 72.5196 64.2892 72.5196H87.1765C91.5735 72.4069 103.299 59.5539 103.299 56.2843Z" fill="#CFCFCF"/>
<path d="M83.2304 72.4068H86.049C95.5196 72.4068 103.299 64.7402 103.299 55.1568V51.8872L83.2304 72.4068Z" fill="white"/>
<path d="M41.9657 119.873H48.1667C52.451 119.873 55.9461 116.377 55.9461 112.093V105.667L41.9657 119.873Z" fill="white"/>
</svg>
