<?xml version="1.0" encoding="utf-8"?>
<!-- Generator: Adobe Illustrator 26.4.1, SVG Export Plug-In . SVG Version: 6.00 Build 0)  -->
<svg version="1.1" id="Layer_1" xmlns="http://www.w3.org/2000/svg" xmlns:xlink="http://www.w3.org/1999/xlink" x="0px" y="0px"
	 viewBox="0 0 39 38" style="enable-background:new 0 0 39 38;" xml:space="preserve">

<g>
	<defs>
		<rect id="SVGID_1_" x="10.6" y="4.4" width="121.9" height="29.2"/>
	</defs>
	<clipPath id="SVGID_00000033361786273701417530000014152124647721118880_">
		<use xlink:href="#SVGID_1_"  style="overflow:visible;"/>
	</clipPath>
	<g style="clip-path:url(#SVGID_00000033361786273701417530000014152124647721118880_);">
		<path class="st1" d="M21.9,26l-3.7,8.1l-1,1.1l-1.1,0.6H9c-0.7,0-1.3-0.6-1.3-1.3V3.4c0-0.7,0.6-1.3,1.3-1.3h17.7
			c2.9,0,5.2,2.3,5.2,5.2V18l-1.6,2.9L29,22.1L21.9,26z"/>
		
			<linearGradient id="SVGID_00000087371951872696745320000006012942499940010395_" gradientUnits="userSpaceOnUse" x1="19.0981" y1="18.1051" x2="25.4171" y2="11.7085" gradientTransform="matrix(1 0 0 -1 0 40)">
			<stop  offset="0" style="stop-color:#1D3D78"/>
			<stop  offset="0.7162" style="stop-color:#232D5A"/>
			<stop  offset="0.8281" style="stop-color:#222F5D"/>
			<stop  offset="0.918" style="stop-color:#203467"/>
			<stop  offset="1" style="stop-color:#1D3D78"/>
		</linearGradient>
		<path style="fill:url(#SVGID_00000087371951872696745320000006012942499940010395_);" d="M31.9,16.9V18c0,1.5-0.8,2.4-0.8,2.4
			L17.6,35.2c0,0-0.8,0.7-1.4,0.7h-1c1.3,0,2.4-1,2.4-2.3v-9.4c0-1.4,1.1-2.5,2.6-2.5h7C28.3,21.7,31.9,17.9,31.9,16.9z"/>
		
			<linearGradient id="SVGID_00000142888821550468145270000002149801148097495680_" gradientUnits="userSpaceOnUse" x1="30.4057" y1="19.8199" x2="28.8473" y2="21.3975" gradientTransform="matrix(1 0 0 -1 0 40)">
			<stop  offset="0" style="stop-color:#0997BF"/>
			<stop  offset="1" style="stop-color:#17B2C0"/>
		</linearGradient>
		<path style="fill:url(#SVGID_00000142888821550468145270000002149801148097495680_);" d="M25.8,21.7h0.9c2.9,0,5.2-2.3,5.2-5.2v-1
			L25.8,21.7z"/>
		
			<linearGradient id="SVGID_00000081609495864594990550000001420310855836991110_" gradientUnits="userSpaceOnUse" x1="16.8414" y1="4.7657" x2="15.3992" y2="6.2255" gradientTransform="matrix(1 0 0 -1 0 40)">
			<stop  offset="0" style="stop-color:#0997BF"/>
			<stop  offset="1" style="stop-color:#17B2C0"/>
		</linearGradient>
		<path style="fill:url(#SVGID_00000081609495864594990550000001420310855836991110_);" d="M13.3,35.9h1.9c1.3,0,2.4-1,2.4-2.3v-1.9
			L13.3,35.9z"/>
	</g>
</g>
</svg>
