<svg width="33" height="34" viewBox="0 0 33 34" fill="none" xmlns="http://www.w3.org/2000/svg">
<path d="M32.8106 19.0678L28.6613 26.1809C28.3384 26.7344 27.8761 27.1937 27.3204 27.5129C26.7647 27.8321 26.135 28 25.4942 28H2.57956C1.51834 28 0.857141 26.8488 1.39184 25.9322L5.54114 18.8191C5.86404 18.2656 6.3264 17.8063 6.88211 17.4871C7.43782 17.168 8.06748 17 8.70833 17H31.6229C32.6842 17 33.3454 18.1512 32.8106 19.0678ZM8.70833 15.1667H27.5V12.4167C27.5 10.8979 26.2688 9.66667 24.75 9.66667H15.5833L11.9167 6H2.75C1.2312 6 0 7.2312 0 8.75V24.6797L3.95754 17.8954C4.93934 16.2122 6.75979 15.1667 8.70833 15.1667Z" fill="#21CBDB"/>
</svg>
