<svg width="33" height="34" viewBox="0 0 33 34" fill="none" xmlns="http://www.w3.org/2000/svg">
<g clip-path="url(#clip0_97_130)">
<path d="M0.799902 10.0405L15.8136 16.8512C16.2519 17.0504 16.7475 17.0504 17.1858 16.8512L32.1995 10.0405C33.2662 9.55642 33.2662 7.94445 32.1995 7.46041L17.1865 0.649002C16.9711 0.550576 16.7371 0.499634 16.5004 0.499634C16.2636 0.499634 16.0296 0.550576 15.8143 0.649002L0.799902 7.45976C-0.266797 7.94381 -0.266797 9.55642 0.799902 10.0405ZM32.2002 15.7304L28.4561 14.0333L18.0379 18.7558C17.5506 18.9769 17.0331 19.089 16.5 19.089C15.967 19.089 15.4501 18.9769 14.9622 18.7558L4.54463 14.0333L0.799902 15.7304C-0.266797 16.2138 -0.266797 17.8251 0.799902 18.3085L15.8136 25.1141C16.2519 25.3126 16.7475 25.3126 17.1858 25.1141L32.2002 18.3085C33.2669 17.8251 33.2669 16.2138 32.2002 15.7304V15.7304ZM32.2002 23.9675L28.4703 22.2769L18.0379 27.0058C17.5506 27.2269 17.0331 27.339 16.5 27.339C15.967 27.339 15.4501 27.2269 14.9622 27.0058L4.53045 22.2769L0.799902 23.9675C-0.266797 24.4509 -0.266797 26.0622 0.799902 26.5456L15.8136 33.3512C16.2519 33.5497 16.7475 33.5497 17.1858 33.3512L32.2002 26.5456C33.2669 26.0622 33.2669 24.4509 32.2002 23.9675V23.9675Z" fill="#21CBDB"/>
</g>
<defs>
<clipPath id="clip0_97_130">
<rect width="33" height="33" fill="white" transform="translate(0 0.5)"/>
</clipPath>
</defs>
</svg>
