<svg width="33" height="34" viewBox="0 0 33 34" fill="none" xmlns="http://www.w3.org/2000/svg">
<path d="M33 17.4125V16.5875C33 16.1317 32.6308 15.7625 32.175 15.7625H17.7375V13.7H21.45C22.3611 13.7 23.1 12.9611 23.1 12.05V5.44999C23.1 4.53888 22.3611 3.79999 21.45 3.79999H11.55C10.6389 3.79999 9.9 4.53888 9.9 5.44999V12.05C9.9 12.9611 10.6389 13.7 11.55 13.7H15.2625V15.7625H0.825C0.369187 15.7625 0 16.1317 0 16.5875V17.4125C0 17.8683 0.369187 18.2375 0.825 18.2375H6.1875V20.3H3.3C2.38889 20.3 1.65 21.0389 1.65 21.95V28.55C1.65 29.4611 2.38889 30.2 3.3 30.2H11.55C12.4611 30.2 13.2 29.4611 13.2 28.55V21.95C13.2 21.0389 12.4611 20.3 11.55 20.3H8.6625V18.2375H24.3375V20.3H21.45C20.5389 20.3 19.8 21.0389 19.8 21.95V28.55C19.8 29.4611 20.5389 30.2 21.45 30.2H29.7C30.6111 30.2 31.35 29.4611 31.35 28.55V21.95C31.35 21.0389 30.6111 20.3 29.7 20.3H26.8125V18.2375H32.175C32.6308 18.2375 33 17.8683 33 17.4125ZM13.2 10.4V7.09999H19.8V10.4H13.2ZM9.9 26.9H4.95V23.6H9.9V26.9ZM28.05 26.9H23.1V23.6H28.05V26.9Z" fill="#21CBDB"/>
</svg>
